<svg width="48" height="48" viewBox="0 0 48 48" fill="none" xmlns="http://www.w3.org/2000/svg">
<g clip-path="url(#clip0_13_2)">
<g filter="url(#filter0_f_13_2)">
<ellipse cx="21.3333" cy="44.1212" rx="10.2222" ry="1.93939" fill="#EE5338" fill-opacity="0.5"/>
</g>
<path d="M17.7269 11.2503C18.8217 7.75507 23.2485 7.64921 24.5465 10.9328L24.6564 11.2523L26.1338 15.966C26.4724 17.047 27.0195 18.0362 27.7383 18.8669C28.4571 19.6976 29.3309 20.3505 30.3006 20.7815L30.6979 20.9433L35.0185 22.5531C38.2223 23.7475 38.3193 28.577 35.3114 29.993L35.0185 30.1129L30.6979 31.7247C29.7067 32.0938 28.7996 32.6907 28.0378 33.4749C27.276 34.2591 26.6773 35.2124 26.2821 36.2706L26.1338 36.702L24.6582 41.4176C23.5634 44.9129 19.1366 45.0188 17.8404 41.7372L17.7269 41.4176L16.2513 36.704C15.913 35.6226 15.3659 34.633 14.6471 33.8019C13.9283 32.9709 13.0544 32.3177 12.0845 31.8865L11.6891 31.7247L7.36846 30.1149C4.16279 28.9205 4.06576 24.091 7.07554 22.6769L7.36846 22.5531L11.6891 20.9433C12.6799 20.5739 13.5867 19.977 14.3481 19.1928C15.1095 18.4086 15.708 17.4554 16.103 16.3974L16.2513 15.966L17.7269 11.2503ZM35.8387 4.36365C36.1812 4.36365 36.5168 4.46846 36.8074 4.66618C37.098 4.8639 37.332 5.1466 37.4827 5.48214L37.5706 5.71582L38.2113 7.76506L40.0915 8.46411C40.4348 8.59133 40.7356 8.82685 40.9561 9.14083C41.1765 9.4548 41.3065 9.8331 41.3296 10.2278C41.3528 10.6224 41.268 11.0157 41.086 11.3578C40.9041 11.6998 40.6331 11.9752 40.3076 12.1491L40.0915 12.245L38.2132 12.9441L37.5724 14.9953C37.4556 15.3696 37.2395 15.6977 36.9516 15.938C36.6637 16.1783 36.3169 16.3199 35.9552 16.3449C35.5934 16.3699 35.233 16.2773 34.9196 16.0786C34.6062 15.8799 34.3539 15.5842 34.1946 15.229L34.1068 14.9953L33.466 12.9461L31.5858 12.247C31.2426 12.1198 30.9417 11.8843 30.7213 11.5703C30.5008 11.2563 30.3708 10.878 30.3477 10.4833C30.3246 10.0887 30.4093 9.69539 30.5913 9.35334C30.7732 9.01129 31.0442 8.73587 31.3698 8.56198L31.5858 8.46611L33.4642 7.76705L34.1049 5.71582C34.2284 5.32121 34.4619 4.97863 34.7729 4.73614C35.0838 4.49365 35.4565 4.3634 35.8387 4.36365Z" fill="url(#paint0_linear_13_2)"/>
</g>
<defs>
<filter id="filter0_f_13_2" x="7.11108" y="38.1818" width="28.4445" height="11.8788" filterUnits="userSpaceOnUse" color-interpolation-filters="sRGB">
<feFlood flood-opacity="0" result="BackgroundImageFix"/>
<feBlend mode="normal" in="SourceGraphic" in2="BackgroundImageFix" result="shape"/>
<feGaussianBlur stdDeviation="2" result="effect1_foregroundBlur_13_2"/>
</filter>
<linearGradient id="paint0_linear_13_2" x1="19.5652" y1="21.378" x2="30.7378" y2="37.108" gradientUnits="userSpaceOnUse">
<stop stop-color="#FF8F38"/>
<stop offset="1" stop-color="#F32D4E"/>
</linearGradient>
<clipPath id="clip0_13_2">
<rect width="48" height="48" fill="white"/>
</clipPath>
</defs>
</svg>
